<svg width="20" height="21" viewBox="0 0 20 21" fill="none" xmlns="http://www.w3.org/2000/svg">
<g clip-path="url(#clip0_62_2080)">
<path d="M8.33124 5.06403H4.15937C3.23774 5.06403 2.49062 5.81115 2.49062 6.73278V9.2359C2.91769 9.2359 3.34476 9.39882 3.6706 9.72467C4.32229 10.3764 4.32229 11.4329 3.6706 12.0846C3.34476 12.4105 2.91769 12.5734 2.49062 12.5734V15.0765C2.49062 15.9982 3.23774 16.7453 4.15937 16.7453H8.33124M8.33124 5.06403H15.8406C16.7622 5.06403 17.5094 5.81115 17.5094 6.73278V9.2359C17.0823 9.2359 16.6552 9.39882 16.3294 9.72467C15.6777 10.3764 15.6777 11.4329 16.3294 12.0846C16.6552 12.4105 17.0823 12.5734 17.5094 12.5734C17.5094 13.1992 17.5094 14.141 17.5094 15.0765C17.5094 15.9982 16.7622 16.7453 15.8406 16.7453H8.33124M8.33124 5.06403V16.7453" stroke="black" stroke-width="1.66875" stroke-linejoin="round"/>
</g>
<defs>
<clipPath id="clip0_62_2080">
<rect width="20" height="20" fill="white" transform="translate(0 0.904663)"/>
</clipPath>
</defs>
</svg>
