<svg width="20" height="20" viewBox="0 0 20 20" fill="none" xmlns="http://www.w3.org/2000/svg">
<path fill-rule="evenodd" clip-rule="evenodd" d="M4.16662 3.33331C2.78591 3.33331 1.66663 4.4526 1.66663 5.83331V8.33331C1.66663 8.79355 2.03972 9.16665 2.49996 9.16665C2.71452 9.16665 2.92633 9.24784 3.08921 9.41072C3.41465 9.73616 3.41465 10.2638 3.08921 10.5892C2.92633 10.7521 2.71452 10.8333 2.49996 10.8333C2.03972 10.8333 1.66663 11.2064 1.66663 11.6666V14.1666C1.66663 15.5474 2.78592 16.6666 4.16663 16.6666H8.33329H15.8333C17.214 16.6666 18.3333 15.5474 18.3333 14.1667V14.1612V14.1557V14.1502V14.1448V14.1393V14.1338V14.1283V14.1229V14.1174V14.1119V14.1064V14.1009V14.0955V14.09V14.0845V14.079V14.0736V14.0681V14.0626V14.0571V14.0517V14.0462V14.0407V14.0352V14.0298V14.0243V14.0188V14.0134V14.0079V14.0024V13.9969V13.9915V13.986V13.9805V13.975V13.9696V13.9641V13.9586V13.9532V13.9477V13.9422V13.9368V13.9313V13.9258V13.9204V13.9149V13.9094V13.904V13.8985V13.893V13.8876V13.8821V13.8766V13.8712V13.8657V13.8603V13.8548V13.8493V13.8439V13.8384V13.833V13.8275V13.822V13.8166V13.8111V13.8057V13.8002V13.7948V13.7893V13.7839V13.7784V13.773V13.7675V13.7621V13.7566V13.7512V13.7458V13.7403V13.7349V13.7294V13.724V13.7185V13.7131V13.7077V13.7022V13.6968V13.6914V13.6859V13.6805V13.6751V13.6696V13.6642V13.6588V13.6534V13.6479V13.6425V13.6371V13.6317V13.6263V13.6208V13.6154V13.61V13.6046V13.5992V13.5938V13.5884V13.583V13.5775V13.5721V13.5667V13.5613V13.5559V13.5505V13.5451V13.5397V13.5343V13.5289V13.5236V13.5182V13.5128V13.5074V13.502V13.4966V13.4912V13.4859V13.4805V13.4751V13.4697V13.4643V13.459V13.4536V13.4482V13.4429V13.4375V13.4321V13.4268V13.4214V13.4161V13.4107V13.4053V13.4V13.3946V13.3893V13.3839V13.3786V13.3733V13.3679V13.3626V13.3572V13.3519V13.3466V13.3412V13.3359V13.3306V13.3253V13.3199V13.3146V13.3093V13.304V13.2987V13.2933V13.288V13.2827V13.2774V13.2721V13.2668V13.2615V13.2562V13.2509V13.2456V13.2403V13.2351V13.2298V13.2245V13.2192V13.2139V13.2087V13.2034V13.1981V13.1928V13.1876V13.1823V13.1771V13.1718V13.1665V13.1613V13.156V13.1508V13.1455V13.1403V13.1351V13.1298V13.1246V13.1193V13.1141V13.1089V13.1037V13.0984V13.0932V13.088V13.0828V13.0776V13.0724V13.0672V13.062V13.0568V13.0516V13.0464V13.0412V13.036V13.0308V13.0256V13.0204V13.0153V13.0101V13.0049V12.9997V12.9946V12.9894V12.9843V12.9791V12.9739V12.9688V12.9636V12.9585V12.9534V12.9482V12.9431V12.938V12.9328V12.9277V12.9226V12.9175V12.9123V12.9072V12.9021V12.897V12.8919V12.8868V12.8817V12.8766V12.8715V12.8665V12.8614V12.8563V12.8512V12.8461V12.8411V12.836V12.8309V12.8259V12.8208V12.8158V12.8107V12.8057V12.8006V12.7956V12.7906V12.7855V12.7805V12.7755V12.7705V12.7654V12.7604V12.7554V12.7504V12.7454V12.7404V12.7354V12.7304V12.7254V12.7205V12.7155V12.7105V12.7055V12.7006V12.6956V12.6906V12.6857V12.6807V12.6758V12.6708V12.6659V12.661V12.656V12.6511V12.6462V12.6413V12.6363V12.6314V12.6265V12.6216V12.6167V12.6118V12.6069V12.602V12.5971V12.5923V12.5874V12.5825V12.5776V12.5728V12.5679V12.5631V12.5582V12.5534V12.5485V12.5437V12.5389V12.534V12.5292V12.5244V12.5196V12.5147V12.5099V12.5051V12.5003V12.4955V12.4908V12.486V12.4812V12.4764V12.4716V12.4669V12.4621V12.4573V12.4526V12.4478V12.4431V12.4384V12.4336V12.4289V12.4242V12.4194V12.4147V12.41V12.4053V12.4006V12.3959V12.3912V12.3865V12.3818V12.3771V12.3725V12.3678V12.3631V12.3585V12.3538V12.3492V12.3445V12.3399V12.3352V12.3306V12.326V12.3214V12.3167V12.3121V12.3075V12.3029V12.2983V12.2937V12.2892V12.2846V12.28V12.2754V12.2709V12.2663V12.2617V12.2572V12.2526V12.2481V12.2436V12.239V12.2345V12.23V12.2255V12.221V12.2165V12.212V12.2075V12.203V12.1985V12.194V12.1896V12.1851V12.1806V12.1762V12.1717V12.1673V12.1628V12.1584V12.154V12.1496V12.1451V12.1407V12.1363V12.1319V12.1275V12.1231V12.1188V12.1144V12.11V12.1056V12.1013V12.0969V12.0926V12.0882V12.0839V12.0796V12.0752V12.0709V12.0666V12.0623V12.058V12.0537V12.0494V12.0451V12.0408V12.0365V12.0323V12.028V12.0238V12.0195V12.0153V12.011V12.0068V12.0026V11.9983V11.9941V11.9899V11.9857V11.9815V11.9773V11.9731V11.969V11.9648V11.9606V11.9565V11.9523V11.9482V11.944V11.9399V11.9358V11.9316V11.9275V11.9234V11.9193V11.9152V11.9111V11.907V11.9029V11.8989V11.8948V11.8907V11.8867V11.8826V11.8786V11.8746V11.8705V11.8665V11.8625V11.8585V11.8545V11.8505V11.8465V11.8425V11.8385V11.8346V11.8306V11.8267V11.8227V11.8188V11.8148V11.8109V11.807V11.8031V11.7991V11.7952V11.7914V11.7875V11.7836V11.7797V11.7758V11.772V11.7681V11.7643V11.7604V11.7566V11.7528V11.7489V11.7451V11.7413V11.7375V11.7337V11.7299V11.7262V11.7224V11.7186V11.7149V11.7111V11.7074V11.7036V11.6999V11.6962V11.6925V11.6888V11.685V11.6814V11.6777V11.674V11.6703V11.6666C18.3333 11.2064 17.9602 10.8333 17.5 10.8333C17.2854 10.8333 17.0736 10.7521 16.9107 10.5892C16.5853 10.2638 16.5853 9.73616 16.9107 9.41072C17.0736 9.24784 17.2854 9.16665 17.5 9.16665C17.9602 9.16665 18.3333 8.79355 18.3333 8.33331V5.83331C18.3333 4.4526 17.214 3.33331 15.8333 3.33331H8.33329H4.16662ZM3.33329 5.83331C3.33329 5.37308 3.70639 4.99998 4.16662 4.99998H7.49996V15H4.16663C3.70639 15 3.33329 14.6269 3.33329 14.1666V12.3574C3.67448 12.237 3.99503 12.0404 4.26772 11.7677C5.24404 10.7914 5.24404 9.20852 4.26772 8.23221C3.99503 7.95952 3.67448 7.76294 3.33329 7.64256V5.83331Z" fill="black"/>
</svg>
