<svg width="16" height="16" viewBox="0 0 16 16" fill="none" xmlns="http://www.w3.org/2000/svg">
<g clip-path="url(#clip0_101_2941)">
<path d="M11.6667 1.27769C10.916 1.28937 10.1816 1.49893 9.53783 1.88521C8.89404 2.27149 8.36357 2.82081 7.99999 3.47769C7.63642 2.82081 7.10595 2.27149 6.46215 1.88521C5.81835 1.49893 5.08403 1.28937 4.33333 1.27769C3.13662 1.32969 2.00913 1.8532 1.19718 2.73385C0.385232 3.6145 -0.0451745 4.78071 -7.46106e-06 5.97769C-7.46106e-06 9.00903 3.19066 12.3197 5.86666 14.5644C6.46414 15.0664 7.21956 15.3417 7.99999 15.3417C8.78042 15.3417 9.53585 15.0664 10.1333 14.5644C12.8093 12.3197 16 9.00903 16 5.97769C16.0452 4.78071 15.6148 3.6145 14.8028 2.73385C13.9909 1.8532 12.8634 1.32969 11.6667 1.27769ZM9.27666 13.5444C8.91931 13.8453 8.46716 14.0103 7.99999 14.0103C7.53282 14.0103 7.08067 13.8453 6.72333 13.5444C3.29799 10.6704 1.33333 7.91303 1.33333 5.97769C1.28775 5.13417 1.57757 4.30685 2.13957 3.67616C2.70157 3.04547 3.49015 2.66259 4.33333 2.61103C5.1765 2.66259 5.96509 3.04547 6.52708 3.67616C7.08908 4.30685 7.3789 5.13417 7.33333 5.97769C7.33333 6.15451 7.40356 6.32407 7.52859 6.4491C7.65361 6.57412 7.82318 6.64436 7.99999 6.64436C8.1768 6.64436 8.34637 6.57412 8.4714 6.4491C8.59642 6.32407 8.66666 6.15451 8.66666 5.97769C8.62109 5.13417 8.9109 4.30685 9.4729 3.67616C10.0349 3.04547 10.8235 2.66259 11.6667 2.61103C12.5098 2.66259 13.2984 3.04547 13.8604 3.67616C14.4224 4.30685 14.7122 5.13417 14.6667 5.97769C14.6667 7.91303 12.702 10.6704 9.27666 13.5417V13.5444Z" fill="black"/>
</g>
<defs>
<clipPath id="clip0_101_2941">
<rect width="16" height="16" fill="white"/>
</clipPath>
</defs>
</svg>
