<svg width="15" height="20" viewBox="0 0 15 20" fill="none" xmlns="http://www.w3.org/2000/svg">
<path d="M12.1876 6.87108L11.6142 6.87032C10.9589 6.86955 10.2814 6.86879 9.61233 6.87414C9.61921 6.28231 9.61921 5.66524 9.61233 5.03747C10.0061 5.04206 10.4129 5.04053 10.7738 5.03976L11.0483 5.039C11.5599 5.03823 11.904 4.69414 11.904 4.1826C11.9047 3.07616 11.9047 1.96972 11.904 0.862517C11.904 0.338737 11.5622 0 11.0346 0C8.40954 0 5.78452 0 3.15874 0C2.63114 0 2.29011 0.338737 2.28934 0.862517C2.28858 1.96896 2.28858 3.07539 2.28934 4.1826C2.28934 4.69414 2.63343 5.03823 3.14498 5.039L3.46536 5.03976C3.83086 5.04129 4.20783 5.04206 4.58174 5.0367C4.57409 5.60942 4.57409 6.21196 4.58098 6.87414C3.89662 6.86802 3.2115 6.86955 2.54779 6.87032L2.00566 6.87108C0.843401 6.87185 0 7.71448 0 8.87521C0.000764643 11.9147 0.000764643 14.9549 0.00152929 17.9943C0.00152929 19.1566 0.84493 20 2.00566 20C2.84524 20 3.68405 20 4.52363 20H7.09741H10.0076C10.7348 20 11.462 20 12.1892 20C13.3507 20 14.1933 19.1558 14.1941 17.9943C14.1948 14.9549 14.1948 11.9147 14.1941 8.87521C14.1933 7.71448 13.3499 6.87108 12.1876 6.87108ZM12.5898 8.92262C12.5898 11.9307 12.5898 14.9381 12.5898 17.9462C12.5898 18.2788 12.4736 18.3965 12.1464 18.3965C8.77734 18.3965 5.40832 18.3965 2.04007 18.3965C1.72274 18.3965 1.60422 18.2773 1.60422 17.9576C1.60422 14.9434 1.60422 11.9292 1.60422 8.91497C1.60422 8.59382 1.72198 8.47454 2.03777 8.47454H4.43034H7.10965H8.54794H12.1441C12.4736 8.47454 12.5898 8.59153 12.5898 8.92262ZM3.88974 1.6004C6.15996 1.60728 8.25967 1.60728 10.3043 1.59963C10.2959 2.22435 10.2959 2.84371 10.3043 3.44089C9.84631 3.43631 9.35311 3.43478 8.70928 3.43478C8.46154 3.43478 8.21532 3.43478 7.97217 3.43554H7.89876C7.62655 3.43554 7.35434 3.43631 7.08289 3.43631L6.21655 3.43554C5.45343 3.43478 4.66509 3.43401 3.88821 3.43936C3.89968 2.90794 3.89968 2.33828 3.88974 1.6004ZM8.01193 5.67442C8.01193 5.76847 8.01269 5.86175 8.01269 5.95504C8.01269 6.04909 8.01269 6.14314 8.01193 6.23643C8.01116 6.44365 8.0104 6.65775 8.01346 6.87185C7.39333 6.86802 6.77779 6.86802 6.18061 6.87185C6.18443 6.25784 6.18443 5.64154 6.18061 5.03747C6.79615 5.04129 7.41168 5.04129 8.01346 5.03747C8.0104 5.25233 8.01116 5.46643 8.01193 5.67442Z" fill="black"/>
<path d="M11.0178 9.1604H8.19471H7.10891H5.96271H3.16106C2.84297 9.1604 2.58299 9.28198 2.427 9.5022C2.2756 9.71706 2.24884 9.9931 2.35054 10.2798C3.08689 12.3482 3.45162 14.5519 3.43404 16.829C3.43174 17.102 3.50974 17.3191 3.6642 17.4751C3.81865 17.6311 4.03428 17.7099 4.30497 17.7099H7.10127H9.89221C10.1545 17.7099 10.3732 17.6288 10.5261 17.4759C10.6783 17.323 10.7586 17.1043 10.7578 16.8443C10.7563 16.2976 10.7846 15.7325 10.8434 15.1154C11.0055 13.4233 11.3397 11.803 11.8359 10.2982C11.9376 9.9908 11.9086 9.70406 11.7541 9.49073C11.602 9.27816 11.3404 9.1604 11.0178 9.1604ZM10.0054 10.7746L9.96638 10.9267C9.88839 11.2303 9.80734 11.5446 9.73393 11.855C9.41508 13.2023 9.2308 14.5947 9.17039 16.1102C8.4371 16.1072 7.69769 16.1064 6.96287 16.1064C6.41003 16.1064 5.86025 16.1072 5.31812 16.1072H5.03138C4.98932 14.285 4.71099 12.4912 4.2025 10.7738H10.0054V10.7746Z" fill="black"/>
</svg>
