<svg width="15" height="20" viewBox="0 0 15 20" fill="none" xmlns="http://www.w3.org/2000/svg">
<path d="M7.01754 20C5.28717 20 3.5568 20 1.82643 20C0.75816 20 0.000586964 19.2417 0.000586964 18.1718C-0.000195655 15.0672 -0.000195655 11.9633 0.000586964 8.85868C0.000586964 7.78884 0.757378 7.03205 1.82722 7.03127C2.72488 7.03048 3.62254 7.02814 4.52021 7.0344C4.65873 7.03518 4.6916 6.9984 4.68925 6.863C4.68064 6.38169 4.69082 5.8996 4.68221 5.41829C4.67986 5.29464 4.71586 5.26959 4.83325 5.26959C6.29675 5.27351 7.76025 5.27429 9.22374 5.26959C9.34505 5.26959 9.37479 5.30011 9.37322 5.41986C9.36618 5.90821 9.37479 6.39578 9.36696 6.88413C9.3654 7.00622 9.39827 7.03361 9.51801 7.03361C10.4219 7.02814 11.3266 7.03048 12.2306 7.03048C13.2988 7.03127 14.0556 7.78884 14.0556 8.85946C14.0564 11.9641 14.0564 15.068 14.0556 18.1726C14.0556 19.2409 13.2965 19.9985 12.2274 19.9985C10.4916 20 8.75417 20 7.01754 20ZM7.03476 9.37521C5.68866 9.37521 4.34255 9.37442 2.99567 9.37599C2.50027 9.37677 2.23261 9.74773 2.39775 10.2142C3.17176 12.4024 3.53802 14.6571 3.51533 16.9768C3.51063 17.4283 3.74463 17.6569 4.19855 17.6569C6.09092 17.6569 7.98408 17.6577 9.87645 17.6569C10.3038 17.6569 10.5448 17.4221 10.5417 16.9979C10.537 16.3726 10.5722 15.7488 10.6309 15.1274C10.7866 13.4628 11.0997 11.8271 11.6569 10.2478C11.8181 9.79078 11.5286 9.35877 11.0159 9.36738C9.68862 9.39086 8.36208 9.37521 7.03476 9.37521Z" fill="#040000"/>
<path d="M7.02384 0.000195655C8.36446 0.000195655 9.70509 0.000195655 11.0449 0.000195655C11.4855 0.000195655 11.7133 0.229503 11.7133 0.67403C11.7133 1.5983 11.7141 2.52257 11.7133 3.44763C11.7133 3.8632 11.4769 4.1019 11.0645 4.1019C8.37699 4.1019 5.68948 4.1019 3.00196 4.1019C2.57544 4.1019 2.343 3.86789 2.343 3.43824C2.343 2.50692 2.34222 1.57639 2.343 0.645073C2.343 0.241242 2.5817 0.000978272 2.9824 0.000978272C4.33007 -0.000586964 5.67695 0.000195655 7.02384 0.000195655Z" fill="#040000"/>
<path d="M10.3116 10.5561C10.1927 11.0187 10.0667 11.4734 9.95944 11.9328C9.62291 13.3728 9.439 14.8339 9.38421 16.3107C9.37952 16.4352 9.36308 16.4884 9.21673 16.4876C7.7595 16.4813 6.30226 16.4837 4.84503 16.4845C4.74877 16.4845 4.68146 16.4939 4.67911 16.3506C4.64076 14.3925 4.34259 12.4743 3.75954 10.6023C3.75562 10.5906 3.75875 10.5773 3.75875 10.5554C5.94148 10.5561 8.12263 10.5561 10.3116 10.5561Z" fill="#040000"/>
</svg>
