<svg width="20" height="21" viewBox="0 0 20 21" fill="none" xmlns="http://www.w3.org/2000/svg">
<g clip-path="url(#clip0_62_2079)">
<path fill-rule="evenodd" clip-rule="evenodd" d="M2.49063 3.39529C2.95144 3.39529 3.325 3.76886 3.325 4.22967V15.9109C3.325 16.3717 3.69856 16.7453 4.15938 16.7453H15.8406C16.3014 16.7453 16.675 16.3717 16.675 15.9109V8.40154H14.1719C13.7111 8.40154 13.3375 8.02798 13.3375 7.56717C13.3375 7.10636 13.7111 6.73279 14.1719 6.73279H17.5094C17.9702 6.73279 18.3438 7.10636 18.3438 7.56717V15.9109C18.3438 17.2934 17.2231 18.414 15.8406 18.414H4.15938C2.77694 18.414 1.65625 17.2934 1.65625 15.9109V4.22967C1.65625 3.76886 2.02981 3.39529 2.49063 3.39529Z" fill="black"/>
<path fill-rule="evenodd" clip-rule="evenodd" d="M1.65625 4.22967C1.65625 3.76886 2.02981 3.39529 2.49063 3.39529H14.1719C14.6327 3.39529 15.0063 3.76886 15.0063 4.22967V15.9109C15.0063 16.3717 15.3798 16.7453 15.8406 16.7453C16.3014 16.7453 16.675 17.1189 16.675 17.5797C16.675 18.0405 16.3014 18.414 15.8406 18.414C14.4582 18.414 13.3375 17.2934 13.3375 15.9109V5.06404H2.49063C2.02981 5.06404 1.65625 4.69048 1.65625 4.22967Z" fill="black"/>
<path fill-rule="evenodd" clip-rule="evenodd" d="M4.99374 7.56716C4.99374 7.10635 5.36731 6.73279 5.82812 6.73279L10.8344 6.73279C11.2952 6.73279 11.6687 7.10635 11.6687 7.56716C11.6687 8.02798 11.2952 8.40154 10.8344 8.40154L5.82812 8.40154C5.36731 8.40154 4.99374 8.02798 4.99374 7.56716Z" fill="black"/>
<path fill-rule="evenodd" clip-rule="evenodd" d="M6.66251 10.9047C6.66251 10.4438 7.03607 10.0703 7.49688 10.0703L10.8344 10.0703C11.2952 10.0703 11.6688 10.4438 11.6688 10.9047C11.6688 11.3655 11.2952 11.739 10.8344 11.739L7.49688 11.739C7.03607 11.739 6.66251 11.3655 6.66251 10.9047Z" fill="black"/>
</g>
<defs>
<clipPath id="clip0_62_2079">
<rect width="20" height="20" fill="white" transform="translate(0 0.904663)"/>
</clipPath>
</defs>
</svg>
