<svg width="20" height="20" viewBox="0 0 20 20" fill="none" xmlns="http://www.w3.org/2000/svg">
<g clip-path="url(#clip0_147_3545)">
<path fill-rule="evenodd" clip-rule="evenodd" d="M1 16C1 13.2385 3.23858 11 6 11H14C16.7614 11 19 13.2385 19 16C19 17.6568 17.6569 19 16 19H4C2.34315 19 1 17.6568 1 16ZM6 13C4.34315 13 3 14.3431 3 16C3 16.5523 3.44772 17 4 17H16C16.5523 17 17 16.5523 17 16C17 14.3431 15.6569 13 14 13H6Z" fill="#292929"/>
<path fill-rule="evenodd" clip-rule="evenodd" d="M10 2.99997C8.89543 2.99997 8 3.8954 8 4.99997C8 6.10454 8.89543 6.99997 10 6.99997C11.1046 6.99997 12 6.10454 12 4.99997C12 3.8954 11.1046 2.99997 10 2.99997ZM6 4.99997C6 2.79083 7.79086 0.999969 10 0.999969C12.2091 0.999969 14 2.79083 14 4.99997C14 7.20911 12.2091 8.99997 10 8.99997C7.79086 8.99997 6 7.20911 6 4.99997Z" fill="#292929"/>
</g>
<defs>
<clipPath id="clip0_147_3545">
<rect width="20" height="20" fill="white"/>
</clipPath>
</defs>
</svg>
